<?xml version="1.0" encoding="UTF-8" standalone="no"?>
<!-- This is a Stata 16.0 generated SVG file (http://www.stata.com) -->

<svg version="1.1" width="600px" height="600px" viewBox="0 0 1584 1584" xmlns="http://www.w3.org/2000/svg" xmlns:xlink="http://www.w3.org/1999/xlink">
	<desc>Stata Graph - Graph</desc>
	<rect x="0" y="0" width="1584" height="1584" style="fill:#C6D3DF;stroke:none"/>
	<rect x="0.00" y="0.05" width="1584.00" height="1583.95" style="fill:#C6D3DF"/>
	<rect x="1.58" y="1.63" width="1580.83" height="1580.78" style="fill:none;stroke:#C6D3DF;stroke-width:3.17"/>
	<line x1="55.44" y1="1366.00" x2="1342.53" y2="1366.00" style="stroke:#FFFFFF;stroke-width:4.75"/>
	<line x1="55.44" y1="1138.75" x2="1342.53" y2="1138.75" style="stroke:#FFFFFF;stroke-width:4.75"/>
	<line x1="55.44" y1="911.49" x2="1342.53" y2="911.49" style="stroke:#FFFFFF;stroke-width:4.75"/>
	<line x1="55.44" y1="684.24" x2="1342.53" y2="684.24" style="stroke:#FFFFFF;stroke-width:4.75"/>
	<line x1="55.44" y1="456.98" x2="1342.53" y2="456.98" style="stroke:#FFFFFF;stroke-width:4.75"/>
	<line x1="55.44" y1="229.73" x2="1342.53" y2="229.73" style="stroke:#FFFFFF;stroke-width:4.75"/>
	<path d=" M64.90 1370.61 L381.95 1143.35 L698.96 1006.98 L1015.97 843.33 L1333.03 293.39" stroke-linejoin="round" style="fill:none;stroke:#3E647D;stroke-width:19.01"/>
	<text x="1364.51" y="1387.19" style="font-family:'Helvetica';font-size:60.49px;fill:#000000">50</text>
	<text x="1364.51" y="1159.93" style="font-family:'Helvetica';font-size:60.49px;fill:#000000">55</text>
	<text x="1364.51" y="932.68" style="font-family:'Helvetica';font-size:60.49px;fill:#000000">60</text>
	<text x="1364.51" y="705.42" style="font-family:'Helvetica';font-size:60.49px;fill:#000000">65</text>
	<text x="1364.51" y="478.17" style="font-family:'Helvetica';font-size:60.49px;fill:#000000">70</text>
	<text x="1364.51" y="250.91" style="font-family:'Helvetica';font-size:60.49px;fill:#000000">75</text>
	<text x="1499.40" y="800.17" style="font-family:'Helvetica';font-size:60.49px;fill:#000000" transform="rotate(-90 1499.40,800.17)" text-anchor="middle">avg</text>
	<line x1="55.44" y1="1380.06" x2="1342.53" y2="1380.06" style="stroke:#000000;stroke-width:3.17"/>
	<line x1="64.95" y1="1358.08" x2="64.95" y2="1380.06" style="stroke:#000000;stroke-width:3.17"/>
	<text x="64.95" y="1433.37" style="font-family:'Helvetica';font-size:60.49px;fill:#000000" text-anchor="middle">1</text>
	<line x1="381.95" y1="1358.08" x2="381.95" y2="1380.06" style="stroke:#000000;stroke-width:3.17"/>
	<text x="381.95" y="1433.37" style="font-family:'Helvetica';font-size:60.49px;fill:#000000" text-anchor="middle">2</text>
	<line x1="699.01" y1="1358.08" x2="699.01" y2="1380.06" style="stroke:#000000;stroke-width:3.17"/>
	<text x="699.01" y="1433.37" style="font-family:'Helvetica';font-size:60.49px;fill:#000000" text-anchor="middle">3</text>
	<line x1="1016.02" y1="1358.08" x2="1016.02" y2="1380.06" style="stroke:#000000;stroke-width:3.17"/>
	<text x="1016.02" y="1433.37" style="font-family:'Helvetica';font-size:60.49px;fill:#000000" text-anchor="middle">4</text>
	<line x1="1333.03" y1="1358.08" x2="1333.03" y2="1380.06" style="stroke:#000000;stroke-width:3.17"/>
	<text x="1333.03" y="1433.37" style="font-family:'Helvetica';font-size:60.49px;fill:#000000" text-anchor="middle">5</text>
	<text x="699.01" y="1499.40" style="font-family:'Helvetica';font-size:60.49px;fill:#000000" text-anchor="middle">Social Distancing: Lowest (1) to Highest (5)</text>
	<text x="90.29" y="156.84" style="font-family:'Helvetica';font-size:95.04px;fill:#000000">pcp_rate</text>
</svg>
