<?xml version="1.0" encoding="UTF-8" standalone="no"?>
<!-- This is a Stata 16.0 generated SVG file (http://www.stata.com) -->

<svg version="1.1" width="600px" height="600px" viewBox="0 0 1584 1584" xmlns="http://www.w3.org/2000/svg" xmlns:xlink="http://www.w3.org/1999/xlink">
	<desc>Stata Graph - Graph</desc>
	<rect x="0" y="0" width="1584" height="1584" style="fill:#C6D3DF;stroke:none"/>
	<rect x="0.00" y="0.05" width="1584.00" height="1583.95" style="fill:#C6D3DF"/>
	<rect x="1.58" y="1.63" width="1580.83" height="1580.78" style="fill:none;stroke:#C6D3DF;stroke-width:3.17"/>
	<line x1="55.44" y1="1370.56" x2="1342.53" y2="1370.56" style="stroke:#FFFFFF;stroke-width:4.75"/>
	<line x1="55.44" y1="1108.31" x2="1342.53" y2="1108.31" style="stroke:#FFFFFF;stroke-width:4.75"/>
	<line x1="55.44" y1="846.05" x2="1342.53" y2="846.05" style="stroke:#FFFFFF;stroke-width:4.75"/>
	<line x1="55.44" y1="583.75" x2="1342.53" y2="583.75" style="stroke:#FFFFFF;stroke-width:4.75"/>
	<line x1="55.44" y1="321.50" x2="1342.53" y2="321.50" style="stroke:#FFFFFF;stroke-width:4.75"/>
	<path d=" M64.90 229.73 L381.95 649.39 L698.96 937.88 L1015.97 1147.66 L1333.03 1344.37" stroke-linejoin="round" style="fill:none;stroke:#3E647D;stroke-width:19.01"/>
	<text x="1364.51" y="1391.74" style="font-family:'Helvetica';font-size:60.49px;fill:#000000">32</text>
	<text x="1364.51" y="1129.49" style="font-family:'Helvetica';font-size:60.49px;fill:#000000">34</text>
	<text x="1364.51" y="867.24" style="font-family:'Helvetica';font-size:60.49px;fill:#000000">36</text>
	<text x="1364.51" y="604.94" style="font-family:'Helvetica';font-size:60.49px;fill:#000000">38</text>
	<text x="1364.51" y="342.69" style="font-family:'Helvetica';font-size:60.49px;fill:#000000">40</text>
	<text x="1499.40" y="800.17" style="font-family:'Helvetica';font-size:60.49px;fill:#000000" transform="rotate(-90 1499.40,800.17)" text-anchor="middle">avg</text>
	<line x1="55.44" y1="1380.06" x2="1342.53" y2="1380.06" style="stroke:#000000;stroke-width:3.17"/>
	<line x1="64.95" y1="1358.08" x2="64.95" y2="1380.06" style="stroke:#000000;stroke-width:3.17"/>
	<text x="64.95" y="1433.37" style="font-family:'Helvetica';font-size:60.49px;fill:#000000" text-anchor="middle">1</text>
	<line x1="381.95" y1="1358.08" x2="381.95" y2="1380.06" style="stroke:#000000;stroke-width:3.17"/>
	<text x="381.95" y="1433.37" style="font-family:'Helvetica';font-size:60.49px;fill:#000000" text-anchor="middle">2</text>
	<line x1="699.01" y1="1358.08" x2="699.01" y2="1380.06" style="stroke:#000000;stroke-width:3.17"/>
	<text x="699.01" y="1433.37" style="font-family:'Helvetica';font-size:60.49px;fill:#000000" text-anchor="middle">3</text>
	<line x1="1016.02" y1="1358.08" x2="1016.02" y2="1380.06" style="stroke:#000000;stroke-width:3.17"/>
	<text x="1016.02" y="1433.37" style="font-family:'Helvetica';font-size:60.49px;fill:#000000" text-anchor="middle">4</text>
	<line x1="1333.03" y1="1358.08" x2="1333.03" y2="1380.06" style="stroke:#000000;stroke-width:3.17"/>
	<text x="1333.03" y="1433.37" style="font-family:'Helvetica';font-size:60.49px;fill:#000000" text-anchor="middle">5</text>
	<text x="699.01" y="1499.40" style="font-family:'Helvetica';font-size:60.49px;fill:#000000" text-anchor="middle">Social Distancing: Lowest (1) to Highest (5)</text>
	<text x="90.29" y="156.84" style="font-family:'Helvetica';font-size:95.04px;fill:#000000">schoollunch</text>
</svg>
