<?xml version="1.0" encoding="UTF-8" standalone="no"?>
<!-- This is a Stata 16.0 generated SVG file (http://www.stata.com) -->

<svg version="1.1" width="600px" height="600px" viewBox="0 0 1584 1584" xmlns="http://www.w3.org/2000/svg" xmlns:xlink="http://www.w3.org/1999/xlink">
	<desc>Stata Graph - Graph</desc>
	<rect x="0" y="0" width="1584" height="1584" style="fill:#C6D3DF;stroke:none"/>
	<rect x="0.00" y="0.05" width="1584.00" height="1583.95" style="fill:#C6D3DF"/>
	<rect x="1.58" y="1.63" width="1580.83" height="1580.78" style="fill:none;stroke:#C6D3DF;stroke-width:3.17"/>
	<line x1="55.44" y1="1320.07" x2="1342.53" y2="1320.07" style="stroke:#FFFFFF;stroke-width:4.75"/>
	<line x1="55.44" y1="1099.64" x2="1342.53" y2="1099.64" style="stroke:#FFFFFF;stroke-width:4.75"/>
	<line x1="55.44" y1="879.22" x2="1342.53" y2="879.22" style="stroke:#FFFFFF;stroke-width:4.75"/>
	<line x1="55.44" y1="658.85" x2="1342.53" y2="658.85" style="stroke:#FFFFFF;stroke-width:4.75"/>
	<line x1="55.44" y1="438.42" x2="1342.53" y2="438.42" style="stroke:#FFFFFF;stroke-width:4.75"/>
	<line x1="55.44" y1="218.00" x2="1342.53" y2="218.00" style="stroke:#FFFFFF;stroke-width:4.75"/>
	<path d=" M64.90 150.03 L381.95 364.62 L698.96 659.93 L1015.97 989.70 L1333.03 1370.61" stroke-linejoin="round" style="fill:none;stroke:#3E647D;stroke-width:19.01"/>
	<text x="1364.51" y="1341.25" style="font-family:'Helvetica';font-size:60.49px;fill:#000000">8</text>
	<text x="1364.51" y="1120.83" style="font-family:'Helvetica';font-size:60.49px;fill:#000000">9</text>
	<text x="1364.51" y="900.40" style="font-family:'Helvetica';font-size:60.49px;fill:#000000">10</text>
	<text x="1364.51" y="680.03" style="font-family:'Helvetica';font-size:60.49px;fill:#000000">11</text>
	<text x="1364.51" y="459.61" style="font-family:'Helvetica';font-size:60.49px;fill:#000000">12</text>
	<text x="1364.51" y="239.18" style="font-family:'Helvetica';font-size:60.49px;fill:#000000">13</text>
	<text x="1499.40" y="760.27" style="font-family:'Helvetica';font-size:60.49px;fill:#000000" transform="rotate(-90 1499.40,760.27)" text-anchor="middle">% Uninsured</text>
	<line x1="55.44" y1="1380.06" x2="1342.53" y2="1380.06" style="stroke:#000000;stroke-width:3.17"/>
	<line x1="64.95" y1="1358.08" x2="64.95" y2="1380.06" style="stroke:#000000;stroke-width:3.17"/>
	<text x="64.95" y="1433.37" style="font-family:'Helvetica';font-size:60.49px;fill:#000000" text-anchor="middle">1</text>
	<line x1="381.95" y1="1358.08" x2="381.95" y2="1380.06" style="stroke:#000000;stroke-width:3.17"/>
	<text x="381.95" y="1433.37" style="font-family:'Helvetica';font-size:60.49px;fill:#000000" text-anchor="middle">2</text>
	<line x1="699.01" y1="1358.08" x2="699.01" y2="1380.06" style="stroke:#000000;stroke-width:3.17"/>
	<text x="699.01" y="1433.37" style="font-family:'Helvetica';font-size:60.49px;fill:#000000" text-anchor="middle">3</text>
	<line x1="1016.02" y1="1358.08" x2="1016.02" y2="1380.06" style="stroke:#000000;stroke-width:3.17"/>
	<text x="1016.02" y="1433.37" style="font-family:'Helvetica';font-size:60.49px;fill:#000000" text-anchor="middle">4</text>
	<line x1="1333.03" y1="1358.08" x2="1333.03" y2="1380.06" style="stroke:#000000;stroke-width:3.17"/>
	<text x="1333.03" y="1433.37" style="font-family:'Helvetica';font-size:60.49px;fill:#000000" text-anchor="middle">5</text>
	<text x="699.01" y="1499.40" style="font-family:'Helvetica';font-size:60.49px;fill:#000000" text-anchor="middle">Social Distancing: Lowest (1) to Highest (5)</text>
	<rect x="511.99" y="55.49" width="830.54" height="84.99" style="fill:#7B92A8"/>
	<rect x="513.58" y="57.07" width="827.37" height="81.82" style="fill:none;stroke:#7B92A8;stroke-width:3.17"/>
	<text x="1333.03" y="121.12" style="font-family:'Helvetica';font-size:65.99px;fill:#FFFFff" text-anchor="end">Uninsured Adults Under 65</text>
</svg>
