<?xml version="1.0" encoding="UTF-8" standalone="no"?>
<!-- This is a Stata 16.0 generated SVG file (http://www.stata.com) -->

<svg version="1.1" width="600px" height="600px" viewBox="0 0 1584 1584" xmlns="http://www.w3.org/2000/svg" xmlns:xlink="http://www.w3.org/1999/xlink">
	<desc>Stata Graph - Graph</desc>
	<rect x="0" y="0" width="1584" height="1584" style="fill:#C6D3DF;stroke:none"/>
	<rect x="0.00" y="0.05" width="1584.00" height="1583.95" style="fill:#C6D3DF"/>
	<rect x="1.58" y="1.63" width="1580.83" height="1580.78" style="fill:none;stroke:#C6D3DF;stroke-width:3.17"/>
	<line x1="55.44" y1="1370.56" x2="1376.84" y2="1370.56" style="stroke:#FFFFFF;stroke-width:4.75"/>
	<line x1="55.44" y1="963.72" x2="1376.84" y2="963.72" style="stroke:#FFFFFF;stroke-width:4.75"/>
	<line x1="55.44" y1="556.88" x2="1376.84" y2="556.88" style="stroke:#FFFFFF;stroke-width:4.75"/>
	<line x1="55.44" y1="149.98" x2="1376.84" y2="149.98" style="stroke:#FFFFFF;stroke-width:4.75"/>
	<path d=" M64.90 150.03 L390.52 556.88 L716.14 556.88 L1041.71 1370.61 L1367.33 1370.61" stroke-linejoin="round" style="fill:none;stroke:#3E647D;stroke-width:19.01"/>
	<text x="1398.81" y="1391.74" style="font-family:'Helvetica';font-size:60.49px;fill:#000000">3</text>
	<text x="1398.81" y="984.90" style="font-family:'Helvetica';font-size:60.49px;fill:#000000">4</text>
	<text x="1398.81" y="578.06" style="font-family:'Helvetica';font-size:60.49px;fill:#000000">5</text>
	<text x="1398.81" y="171.17" style="font-family:'Helvetica';font-size:60.49px;fill:#000000">6</text>
	<text x="1499.40" y="760.27" style="font-family:'Helvetica';font-size:60.49px;fill:#000000" transform="rotate(-90 1499.40,760.27)" text-anchor="middle">Meidan RUCC</text>
	<line x1="55.44" y1="1380.06" x2="1376.84" y2="1380.06" style="stroke:#000000;stroke-width:3.17"/>
	<line x1="64.95" y1="1358.08" x2="64.95" y2="1380.06" style="stroke:#000000;stroke-width:3.17"/>
	<text x="64.95" y="1433.37" style="font-family:'Helvetica';font-size:60.49px;fill:#000000" text-anchor="middle">1</text>
	<line x1="390.52" y1="1358.08" x2="390.52" y2="1380.06" style="stroke:#000000;stroke-width:3.17"/>
	<text x="390.52" y="1433.37" style="font-family:'Helvetica';font-size:60.49px;fill:#000000" text-anchor="middle">2</text>
	<line x1="716.14" y1="1358.08" x2="716.14" y2="1380.06" style="stroke:#000000;stroke-width:3.17"/>
	<text x="716.14" y="1433.37" style="font-family:'Helvetica';font-size:60.49px;fill:#000000" text-anchor="middle">3</text>
	<line x1="1041.76" y1="1358.08" x2="1041.76" y2="1380.06" style="stroke:#000000;stroke-width:3.17"/>
	<text x="1041.76" y="1433.37" style="font-family:'Helvetica';font-size:60.49px;fill:#000000" text-anchor="middle">4</text>
	<line x1="1367.33" y1="1358.08" x2="1367.33" y2="1380.06" style="stroke:#000000;stroke-width:3.17"/>
	<text x="1367.33" y="1433.37" style="font-family:'Helvetica';font-size:60.49px;fill:#000000" text-anchor="middle">5</text>
	<text x="716.14" y="1499.40" style="font-family:'Helvetica';font-size:60.49px;fill:#000000" text-anchor="middle">Distancing: Lowest (1) to Highest (5)</text>
	<rect x="992.61" y="55.49" width="384.23" height="84.99" style="fill:#7B92A8"/>
	<rect x="994.19" y="57.07" width="381.06" height="81.82" style="fill:none;stroke:#7B92A8;stroke-width:3.17"/>
	<text x="1367.33" y="121.12" style="font-family:'Helvetica';font-size:65.99px;fill:#FFFFff" text-anchor="end">Urban-Rural</text>
</svg>
